<svg width="30" height="30" viewBox="0 0 30 30" fill="none" xmlns="http://www.w3.org/2000/svg">
<rect width="30" height="30" rx="15" fill="#0ABAB5"/>
<path fill-rule="evenodd" clip-rule="evenodd" d="M23.0484 9.35183C23.2734 9.57687 23.3997 9.88203 23.3997 10.2002C23.3997 10.5184 23.2734 10.8236 23.0484 11.0486L13.4484 20.6486C13.2234 20.8736 12.9182 21 12.6 21C12.2818 21 11.9766 20.8736 11.7516 20.6486L6.9516 15.8486C6.73301 15.6223 6.61206 15.3192 6.61479 15.0046C6.61753 14.6899 6.74373 14.3889 6.96622 14.1664C7.18871 13.944 7.48968 13.8178 7.80432 13.815C8.11895 13.8123 8.42208 13.9332 8.6484 14.1518L12.6 18.1034L21.3516 9.35183C21.5766 9.12687 21.8818 9.00049 22.2 9.00049C22.5182 9.00049 22.8234 9.12687 23.0484 9.35183Z" fill="white"/>
</svg>
