<svg width="100" height="100" viewBox="0 0 100 100" fill="none" xmlns="http://www.w3.org/2000/svg">
<path d="M86.668 32.4845C91.0044 41.554 91.8276 51.9084 88.9787 61.5492C86.1298 71.19 79.8108 79.4338 71.2412 84.6895C62.6715 89.9453 52.4588 91.8404 42.5741 90.0091C32.6894 88.1778 23.8334 82.7499 17.7153 74.773C11.5972 66.7962 8.65077 56.8358 9.44462 46.8143C10.2385 36.7927 14.7163 27.4205 22.014 20.5063C29.3117 13.5922 38.9118 9.62633 48.9616 9.37414C59.0113 9.12194 68.7983 12.6013 76.4336 19.1407L85.289 10.2813C85.8754 9.69496 86.6707 9.36554 87.5 9.36554C88.3293 9.36554 89.1245 9.69496 89.7109 10.2813C90.2973 10.8677 90.6267 11.663 90.6267 12.4923C90.6267 13.3215 90.2973 14.1168 89.7109 14.7032L52.2109 52.2032C51.6245 52.7896 50.8293 53.119 50 53.119C49.1707 53.119 48.3754 52.7896 47.789 52.2032C47.2027 51.6168 46.8732 50.8215 46.8732 49.9923C46.8732 49.163 47.2027 48.3677 47.789 47.7813L58.6172 36.9532C55.6826 35.0124 52.1789 34.1188 48.6733 34.4171C45.1677 34.7153 41.8653 36.188 39.3008 38.5967C36.7363 41.0053 35.0598 44.209 34.5426 47.6891C34.0255 51.1691 34.698 54.7219 36.4512 57.7722C38.2045 60.8225 40.9359 63.1918 44.2033 64.4966C47.4707 65.8014 51.0829 65.9652 54.455 64.9616C57.8271 63.958 60.7618 61.8457 62.784 58.9667C64.8062 56.0876 65.7976 52.6103 65.5976 49.0977C65.5746 48.6874 65.6325 48.2765 65.7683 47.8885C65.904 47.5005 66.1148 47.1431 66.3886 46.8366C66.6625 46.53 66.9941 46.2805 67.3644 46.1021C67.7347 45.9237 68.1365 45.82 68.5469 45.797C69.3757 45.7503 70.189 46.0349 70.8081 46.588C71.1146 46.8618 71.3641 47.1934 71.5425 47.5637C71.7209 47.934 71.8246 48.3358 71.8476 48.7462C72.1325 53.718 70.7125 58.6382 67.8222 62.6935C64.9319 66.7489 60.7444 69.6967 55.9518 71.0498C51.1592 72.4028 46.0483 72.08 41.464 70.1348C36.8797 68.1897 33.0963 64.7385 30.7391 60.3517C28.382 55.965 27.5921 50.9052 28.5002 46.0088C29.4083 41.1123 31.9599 36.6723 35.7333 33.4225C39.5067 30.1727 44.2761 28.3076 49.2531 28.1357C54.23 27.9637 59.1167 29.4951 63.1055 32.4767L71.9922 23.5899C65.4797 18.1829 57.1991 15.3726 48.7408 15.6988C40.2826 16.025 32.243 19.4648 26.1663 25.3574C20.0897 31.25 16.4043 39.1799 15.8181 47.6242C15.2319 56.0684 17.7862 64.4315 22.9904 71.1072C28.1947 77.7829 35.6818 82.3005 44.0139 83.7922C52.3459 85.284 60.9354 83.6448 68.1325 79.1895C75.3297 74.7341 80.627 67.7768 83.007 59.6538C85.3871 51.5307 84.682 42.8147 81.0273 35.1798C80.6699 34.4318 80.6243 33.5724 80.9004 32.7908C81.1766 32.0091 81.752 31.3692 82.5 31.0118C83.248 30.6544 84.1073 30.6087 84.889 30.8849C85.6706 31.1611 86.3105 31.7365 86.668 32.4845Z" fill="black"/>
<rect x="88.2285" y="7" width="6.76084" height="61.1403" rx="3.38042" transform="rotate(45.1718 88.2285 7)" fill="#0ABAB5"/>
</svg>
