<svg width="144" height="144" viewBox="0 0 144 144" fill="none" xmlns="http://www.w3.org/2000/svg">
<g clip-path="url(#clip0_46147_89260)">
<path d="M75.5768 52.0702L67.0313 37.2898C66.4486 36.2818 65.1591 35.9367 64.1505 36.5197C63.1425 37.1025 62.7974 38.3923 63.3805 39.4006L71.9262 54.1812C72.3216 54.8649 72.3219 55.7149 71.9273 56.3992L57.033 82.2343L41.8093 55.9028C42.0745 55.5956 42.3122 55.2643 42.5161 54.9105L57.411 29.0751L59.8429 33.282C60.426 34.2906 61.716 34.6348 62.7237 34.0521C63.7317 33.4693 64.0768 32.1795 63.4938 31.1712C58.4128 22.3831 57.5463 19.2314 52.8739 19.2314L21.8984 19.2503C19.6074 19.252 17.473 20.4861 16.3275 22.4714C-0.538112 51.7262 0.0814757 50.0657 0.00638258 52.305C-0.0234297 53.2033 0.142225 54.085 0.409692 54.7837L0.409973 54.784C0.850969 55.8547 -0.264177 53.7956 17.9885 85.3657C19.1127 87.3111 21.2248 88.5803 23.5637 88.5803C57.4962 88.5595 55.7505 88.8568 57.7563 87.6967C59.7526 86.5416 58.7241 87.7442 75.5801 58.5057C76.7259 56.5206 76.7245 54.0544 75.5768 52.0702ZM4.32634 53.2031C4.12047 52.5672 4.22453 51.9076 4.51 51.4126C21.0524 22.7189 20.0273 24.4233 20.3364 24.1159C20.747 23.7075 21.3092 23.4679 21.9015 23.4673C55.0412 23.4471 53.6004 23.165 54.5223 24.1853C54.7113 24.7765 54.6457 25.4282 54.3338 25.9693C37.6466 54.9136 38.7856 53.1924 38.0521 53.6162C37.3428 54.026 39.3729 53.9332 5.96489 53.9332C5.37146 53.9332 4.76537 53.6817 4.32634 53.2031ZM23.5617 84.3633C22.7661 84.3633 22.0326 83.9355 21.6397 83.2555L7.12448 58.1496C39.0084 58.1308 37.3012 58.1817 38.1599 58.0149L53.3827 84.3453L23.5617 84.3633Z" fill="#0ABAB5"/>
<path d="M143.731 87.1337C143.428 85.9046 144.472 87.9094 127.594 58.6337C126.426 56.6073 124.264 55.4129 122.023 55.4129C121.981 55.4129 91.0481 55.394 91.0481 55.394C91.0475 55.394 91.045 55.394 91.045 55.394C88.7478 55.394 86.6064 56.6484 85.4732 58.6084L78.9494 69.8921C78.3664 70.9001 78.7112 72.1899 79.7195 72.7729C80.7272 73.3556 82.0172 73.0114 82.6003 72.0028L86.5116 65.2377C102.585 93.1175 101.534 91.3957 102.113 92.0656L86.8893 118.397L71.9947 92.5615C71.6004 91.8775 71.6007 91.0278 71.9961 90.3441L78.9553 78.3076C79.5381 77.2993 79.1935 76.0098 78.1853 75.4267C77.1775 74.844 75.8875 75.1882 75.3044 76.1968L68.3455 88.2331C67.198 90.2173 67.1966 92.683 68.3416 94.668C85.0927 123.724 84.1336 122.683 86.1665 123.86C88.2182 125.045 86.943 124.722 120.358 124.743C122.637 124.743 124.778 123.526 125.933 121.529C144.406 89.5769 144.593 90.6327 143.731 87.1337ZM122.283 119.418C121.889 120.097 121.156 120.526 120.36 120.526L90.5393 120.507L105.762 94.177C106.623 94.3435 104.91 94.2925 136.798 94.312L122.283 119.418ZM139.595 89.3671C139.159 89.8452 138.543 90.0958 137.954 90.0958C104.587 90.0752 106.606 90.2038 105.869 89.7788C105.134 89.353 106.272 91.0717 89.5876 62.1313C89.2754 61.5902 89.2102 60.9388 89.3989 60.3479C89.8314 59.8698 90.4392 59.6105 91.0453 59.6105L122.02 59.6294C122.81 59.6299 123.546 60.0554 123.941 60.7397C140.091 88.7542 140.045 87.9698 139.595 89.3671Z" fill="#0ABAB5"/>
</g>
<defs>
<clipPath id="clip0_46147_89260">
<rect width="143.999" height="143.999" fill="white"/>
</clipPath>
</defs>
</svg>
